<?xml version="1.0" encoding="utf-8"?>
<!-- Generator: Adobe Illustrator 16.0.4, SVG Export Plug-In . SVG Version: 6.00 Build 0)  -->
<!DOCTYPE svg PUBLIC "-//W3C//DTD SVG 1.1//EN" "http://www.w3.org/Graphics/SVG/1.1/DTD/svg11.dtd">
<svg height="0" width="0">
	<defs>
		<clipPath id="svgPath">
			<path fill="#FFFFFF" stroke="#000000" stroke-width="1.5794" stroke-miterlimit="10" d="M1.015,0h1800v724c0,0-1.334,0-2,0c-5.98,3.847-18.915-1.008-29,1
	c-4.201,0.837-8.285-0.923-13-2c-6.999,0.333-14.001,0.667-21,1c-7.162-1.585-27.121-3.717-34-3c-10.087,1.051-23.715,0.266-34-2
	c-9.147-2.015-16.453,1.836-24,0c-6.739-1.639-23.402-4.63-35-2c-7.076,1.604-16.053,1.517-23,4c-18.158,6.491-38.687,15.067-59,19
	c-4.718,0.913-11.602-2.9-14-5c-5.019,1.922-8.402,3.824-14,0c0-0.666,0-1.333,0-2c-3.333,0.333-6.667,0.667-10,1
	c-0.333-0.666-0.667-1.333-1-2c-1.333,0.333-2.667,0.667-4,1c-1-1-2-2-3-3c-4.604-1.395-6.554,1.41-10,2
	c-0.372-2.075-0.242-1.924-1-3c-1.073-0.752-0.945-0.602-3-1c-4.618,3.634-6.971-1.027-12,0c-0.333,0.667-0.667,1.334-1,2
	c-1.666-0.333-3.334-0.667-5-1c-4.82,0.94-13.756,2.439-17,4c-1.842,0.887-4.171,4.23-6,5c-1.666,0-3.334,0-5,0
	c-5.46,2.242-13.367,6.005-19,8c-1.333-0.333-2.667-0.667-4-1c-1.666,1.666-3.334,3.334-5,5c-2-0.666-4-1.333-6-2
	c-3.863-0.017-9.139,4.979-12,6c-2.333-0.333-4.667-0.667-7-1c-3.266,0.799-7.479,4.701-10,6c-2.893,1.49-10.793,2.324-13,3
	c-4.959,1.518-14.536-0.25-18-1c-6.895-1.492-18.539,0.426-28-2c-5.568-1.428-12.425-4.535-19-5c-6.701-0.473-25.065-3.216-33-5
	c-4.006-0.9-22.877,0.051-29,1c-5.14,0.797-10.222-1.58-14-1c-2.868,0.44-6.907,2.771-11,2c-9.718-1.832-21.581,0.197-30-1
	c-1.075-0.152-2.628,1.463-5,1c-10.087-1.97-15.124-2.246-23-2c0-1.333,0-2.667,0-4c-1.516-0.535-1.693-0.675-4-1
	c-2.608,1.475-5.385-0.918-6,0c-1.546,1.133-0.843,1.085-3,2c-8.096-11.351-16.921-1.138-24-6c-0.333-1.333-0.667-2.667-1-4h-6
	c-4.302,0.471-3.249-4.452-7-3c-2.9,0.836-2.574,1.391-6,2c-1.109-3.169-0.271-2.594-2-5c-1.754,0.631-0.972,0.193-2,1
	c-2.406,3.373-0.298,4.377-6,5c-1.785-3.761-1.469-6.418-7-7c0,1.333,0,2.667,0,4c-0.333,0.333-0.667,0.667-1,1
	c-1.754-0.631-0.972-0.192-2-1c-1.283-1.748-1.684-4.222-2-7c-4.652,0.581-5.461,2.867-8,2c-0.814-1.188-1.489-4.59-2-6
	c-2.354,0.537-4.956-0.647-6,0c-3.909,1.63-2.572,3.752-7,5c-1.133-4.127-2.883-4.238-5-7c-1.643,0.887-24,5-24,5
	c-0.667-1.333-1.333-2.667-2-4c-2.395-1.364-5.721-0.578-7,0c-0.667-1-1.333-2-2-3c-2.625-1.201-2.122,3.209-5-1
	c-3.104,2.674-3.289,2.654-7,4c-1.271-4.553-3.176-4.301-9-4c-0.929-0.404-5.364,0.246-9-1c0,1,0,2,0,3
	c-9.949-1.867-10.924-2.024-27-2c0,1,0,2,0,3c-7.244-0.095-11.348,1.21-17,2c-0.333-1.666-0.667-3.334-1-5
	c-5.97-2.67-12.983-7.707-20-6c-2.466,0.6-4.543,2.462-9,2c-2.592-0.269-8.622-4.44-13-2c-0.982,0.547-1.924,3.324-5,4
	c-2.631,0.578-10.486-3.876-15-3c-4.45,0.863-9.32,2.966-14,4c-0.667-0.666-1.333-1.333-2-2c-1.667,0.333-3.333,0.667-5,1
	c-1.333-1.333-2.667-2.667-4-4c-6.212-1.773-31.915,10.519-33,9c-0.667-0.666-1.333-1.333-2-2c-9.827,4.859-22.462,7.98-31,11
	c-1.667-0.333-3.333-0.667-5-1c-1.333,1.333-2.667,2.667-4,4c-3.779,0.987-2.859-2.629-6-2c-1.839,0.368-6.419,4.288-8,5
	c-5.405,2.435-13.747,3.015-18,4c-8.015,1.857-20.313-3.605-30,0c-3.369,1.254-3.358,4.035-8,5c-7.608-5.269-18.733-6.732-27-11
	c-12.965-6.691-27.288-13.101-40-21c-2.762-1.716-4.978-5.637-8-7c-4.276-1.93-11.597-2.034-16-3c-1.667,0.333-3.333,0.667-5,1
	c-1-1.333-2-2.667-3-4c-3.958-1.621-4.9,1.959-5,2c-3-1-6-2-9-3c-1,1-2,2-3,3c-2-0.333-4-0.667-6-1c-4.076,0.856-10.409,2.419-15,3
	c-1.686,0.213-5.341,2.158-8,3c-5.753,1.821-9.375-1.461-14,0c-2.043,0.646-2.116,2.014-7,2c-2-0.333-4-0.667-6-1
	c-1.436,0.374-2.019,3.632-3,4c-2.699,1.013-4.71-3.176-9-2c-8.982,2.461-19.379,5.869-29,8c-3.777,0.837-17.028-2.473-20-3
	c-2.635-0.467-1.866,1.617-3,2c-7.181,2.425-11.311,0.064-17,1c-2.416,0.397-9.594-2.396-12-3c-12.332-0.333-24.668-0.667-37-1
	c-2.277-0.68-4.396-2.505-9-2c-16.744,1.836-54.484-2.234-71-6c-2.333,0.333-4.667,0.667-7,1c-12.705-2.606-19.063-1.385-31-4
	c-3.887-0.852-6.701,1.385-9,2c-3.333,0-6.667,0-10,0c-13.296,4.08-27.909,8.421-41,10c-2.063-2.17-4.799-3.989-8-5
	c0,0.333,0,0.667,0,1c-1.845,2.121-0.918,2.733-4,4c-4.247,2.504-17.684-5.875-23-7c-0.333,0.333-0.667,0.667-1,1
	c0.42,3.1,0.713,2.383,0,5c-1.754-0.631-0.971-0.192-2-1c-3.974-1.416-3.618-3.244-5-7c-6.803,2.145-6.736-3.556-14-2
	c-0.333,0.667-0.667,1.334-1,2c-0.333-0.333-0.667-0.667-1-1c-1.847-0.896-16.914-2.316-21-2c-5.04,0.391-2.82,1.805-5,3
	c-5.091,2.792-11.042-2.889-15-4c-3.333,0.333-6.667,0.667-10,1c-0.987-0.287-7.025-3.762-8-4c-1.016-0.247-9.5,2.392-12,2
	c-2.203-0.345-6.97-2.527-9-3c-4.496-1.047-7.778,1.878-11,1c-1-1-2-2-3-3c-3.059-0.851-2.284,3.195-6,2c-0.667-1-1.333-2-2-3
	c-3.945-1.766-9.743-0.747-13,0c-4.925-1.715-10.376-5.17-16-6c-3.336-0.492-0.705,2.747-4,2c-1.667-1.666-3.333-3.334-5-5
	C5.794,684.594,0,684.75,0,684.75L1.015,0z"/>
		</clipPath>
	</defs>
</svg>
